<svg xmlns="http://www.w3.org/2000/svg" xmlns:xlink="http://www.w3.org/1999/xlink" id="Слой_1" x="0" y="0" version="1.1" viewBox="0 0 500 500" xml:space="preserve" style="enable-background:new 0 0 500 500"><style type="text/css">.st0{fill:#231f20}</style><g><circle cx="375" cy="156" r="15.6" class="st0"/><circle cx="375" cy="265.4" r="15.6" class="st0"/><circle cx="375" cy="374.8" r="15.6" class="st0"/><path d="M398.4,437.7L398.4,437.7h7.8c12.9,0,23.4-10.5,23.4-23.5V336c0-6-2.4-11.5-6.1-15.6c3.8-4.2,6.1-9.6,6.1-15.6 v-78.2c0-6-2.4-11.5-6.1-15.6c3.8-4.2,6.1-9.6,6.1-15.6V117c0-12.9-10.5-23.5-23.4-23.5h-7.8v-7.8c0-12.9-10.5-23.5-23.4-23.5H125 c-12.9,0-23.4,10.5-23.4,23.5v7.8h-7.8c-12.9,0-23.4,10.5-23.4,23.5v78.2c0,6,2.4,11.5,6.1,15.6c-3.7,4.2-6.1,9.6-6.1,15.6v78.2 c0,6,2.4,11.5,6.1,15.6c-3.7,4.2-6.1,9.6-6.1,15.6v78.2c0,12.9,10.5,23.5,23.4,23.5h7.8H398.4z M210.9,437.3L210.9,437.3 M117.2,85.7c0-4.3,3.5-7.8,7.8-7.8h250c4.3,0,7.8,3.5,7.8,7.8v7.8H117.2V85.7z M85.9,117c0-4.3,3.5-7.8,7.8-7.8h312.5 c4.3,0,7.8,3.5,7.8,7.8v78.1c0,4.3-3.5,7.8-7.8,7.8H264.2c-3.2-9.1-11.8-15.6-22-15.6h-93.8c-10.2,0-18.8,6.6-22,15.6H93.8 c-4.3,0-7.8-3.5-7.8-7.8V117z M414.1,226.4v78.1c0,4.3-3.5,7.8-7.8,7.8H264.2c-3.2-9.1-11.8-15.6-22-15.6h-93.8 c-10.2,0-18.8,6.6-22,15.6H93.8c-4.3,0-7.8-3.5-7.8-7.8v-78.1c0-4.3,3.5-7.8,7.8-7.8h312.5C410.6,218.5,414.1,222,414.1,226.4z M117.2,437.3L117.2,437.3h78.1l0,0 M414.1,413.9c0,4.3-3.5,7.8-7.8,7.8H264.2c-3.2-9.1-11.8-15.6-22-15.6h-93.8 c-10.2,0-18.8,6.6-22,15.6H93.8c-4.3,0-7.8-3.5-7.8-7.8v-78.1c0-4.3,3.5-7.8,7.8-7.8h312.5c4.3,0,7.8,3.5,7.8,7.8V413.9z" class="st0"/></g></svg>